<svg width="75" height="63" viewBox="0 0 75 63" fill="none" xmlns="http://www.w3.org/2000/svg">
<path d="M56.6755 62.9C50.8755 62.9 46.6755 60.9 44.0755 56.9C41.4755 52.9 40.1755 48.3 40.1755 43.1C40.1755 40.1 40.5755 36.8 41.3755 33.2C42.1755 29.6 43.6755 26 45.8755 22.4C48.2755 18.6 51.5755 14.9 55.7755 11.3C59.9755 7.5 65.5755 3.9 72.5755 0.499994L74.3755 3.19999C70.3755 6.99999 67.1755 10.3 64.7755 13.1C62.5755 15.9 60.8755 18.5 59.6755 20.9C58.4755 23.3 57.6755 25.5 57.2755 27.5C57.0755 29.5 56.9755 31.6 56.9755 33.8C56.9755 35.4 57.4755 36.6 58.4755 37.4C59.4755 38 60.5755 38.8 61.7755 39.8C63.5755 41 65.1755 42.2 66.5755 43.4C68.1755 44.4 68.9755 46.6 68.9755 50C68.9755 53.6 67.7755 56.7 65.3755 59.3C62.9755 61.7 60.0755 62.9 56.6755 62.9ZM17.0755 62.9C11.2755 62.9 6.97554 60.9 4.17554 56.9C1.57554 52.9 0.27554 48.3 0.27554 43.1C0.27554 40.1 0.67554 36.9 1.47554 33.5C2.27554 29.9 3.87554 26.2 6.27554 22.4C8.67554 18.6 11.9755 14.9 16.1755 11.3C20.3755 7.5 25.9755 3.9 32.9755 0.499994L34.7755 3.19999C30.7755 6.99999 27.5755 10.3 25.1755 13.1C22.9755 15.9 21.2755 18.5 20.0755 20.9C18.8755 23.3 18.0755 25.5 17.6755 27.5C17.4755 29.5 17.3755 31.6 17.3755 33.8C17.3755 35.4 17.7755 36.6 18.5755 37.4C19.5755 38.2 20.6755 38.9 21.8755 39.5C23.4755 40.5 25.0755 41.7 26.6755 43.1C28.4755 44.3 29.3755 46.6 29.3755 50C29.3755 53.6 28.1755 56.7 25.7755 59.3C23.5755 61.7 20.6755 62.9 17.0755 62.9Z" fill="#E9E1D9"/>
</svg>
