<svg width="64" height="50" viewBox="0 0 64 50" fill="none" xmlns="http://www.w3.org/2000/svg">
<path d="M1.99967 1.66667V0C1.55765 0 1.13372 0.175595 0.821163 0.488156C0.508603 0.800716 0.333008 1.22464 0.333008 1.66667H1.99967ZM61.9997 1.66667H63.6663C63.6663 1.22464 63.4907 0.800716 63.1782 0.488156C62.8656 0.175595 62.4417 0 61.9997 0V1.66667ZM1.99967 3.33333H61.9997V0H1.99967V3.33333ZM60.333 1.66667V41.6667H63.6663V1.66667H60.333ZM55.333 46.6667H8.66634V50H55.333V46.6667ZM3.66634 41.6667V1.66667H0.333008V41.6667H3.66634ZM8.66634 46.6667C7.34026 46.6667 6.06849 46.1399 5.13081 45.2022C4.19313 44.2645 3.66634 42.9927 3.66634 41.6667H0.333008C0.333008 43.8768 1.21098 45.9964 2.77378 47.5592C4.33659 49.122 6.4562 50 8.66634 50V46.6667ZM60.333 41.6667C60.333 42.9927 59.8062 44.2645 58.8685 45.2022C57.9309 46.1399 56.6591 46.6667 55.333 46.6667V50C57.5431 50 59.6628 49.122 61.2256 47.5592C62.7884 45.9964 63.6663 43.8768 63.6663 41.6667H60.333Z" fill="#B58B61"/>
<path d="M2 1.66663L32 31.6666L62 1.66663" stroke="#B58B61" stroke-linecap="round" stroke-linejoin="round"/>
</svg>
