<svg width="45" height="69" viewBox="0 0 45 69" fill="none" xmlns="http://www.w3.org/2000/svg">
<path d="M39.4167 0.666748H5.58333C4.30145 0.666748 3.07208 1.17597 2.16565 2.0824C1.25923 2.98882 0.75 4.2182 0.75 5.50008V63.5001C0.75 64.782 1.25923 66.0113 2.16565 66.9178C3.07208 67.8242 4.30145 68.3334 5.58333 68.3334H39.4167C40.6985 68.3334 41.9279 67.8242 42.8344 66.9178C43.7408 66.0113 44.25 64.782 44.25 63.5001V5.50008C44.25 4.2182 43.7408 2.98882 42.8344 2.0824C41.9279 1.17597 40.6985 0.666748 39.4167 0.666748ZM24.9167 63.5001H20.0833V58.6667H24.9167V63.5001ZM5.58333 53.8334V5.50008H39.4167V53.8334H5.58333Z" fill="#B58B61"/>
</svg>
